<mxfile host="Electron" agent="Mozilla/5.0 (X11; Linux x86_64) AppleWebKit/537.36 (KHTML, like Gecko) draw.io/26.2.2 Chrome/134.0.6998.178 Electron/35.1.2 Safari/537.36" version="26.2.2">
  <diagram name="Page-1" id="acR1WmfLHcCQmbg5mVH3">
    <mxGraphModel dx="2560" dy="-190" grid="1" gridSize="10" guides="1" tooltips="1" connect="1" arrows="1" fold="1" page="1" pageScale="1" pageWidth="850" pageHeight="1100" math="0" shadow="0">
      <root>
        <mxCell id="0" />
        <mxCell id="1" parent="0" />
        <mxCell id="6dfiyO4DCfQlSEujeqz_-54" value="" style="shape=umlLifeline;perimeter=lifelinePerimeter;whiteSpace=wrap;html=1;container=1;dropTarget=0;collapsible=0;recursiveResize=0;outlineConnect=0;portConstraint=eastwest;newEdgeStyle={&quot;curved&quot;:0,&quot;rounded&quot;:0};participant=umlActor;size=10;" parent="1" vertex="1">
          <mxGeometry x="410" y="1370" width="20" height="670" as="geometry" />
        </mxCell>
        <mxCell id="6dfiyO4DCfQlSEujeqz_-63" value="main Branch (software-stack)" style="text;html=1;align=center;verticalAlign=middle;whiteSpace=wrap;rounded=0;" parent="1" vertex="1">
          <mxGeometry x="330" y="1340" width="180" height="30" as="geometry" />
        </mxCell>
        <mxCell id="6dfiyO4DCfQlSEujeqz_-64" value="dev Branch (software-stack)" style="text;html=1;align=center;verticalAlign=middle;whiteSpace=wrap;rounded=0;" parent="1" vertex="1">
          <mxGeometry x="940" y="1340" width="160" height="30" as="geometry" />
        </mxCell>
        <mxCell id="6dfiyO4DCfQlSEujeqz_-65" value="" style="shape=umlLifeline;perimeter=lifelinePerimeter;whiteSpace=wrap;html=1;container=1;dropTarget=0;collapsible=0;recursiveResize=0;outlineConnect=0;portConstraint=eastwest;newEdgeStyle={&quot;curved&quot;:0,&quot;rounded&quot;:0};participant=umlActor;size=10;" parent="1" vertex="1">
          <mxGeometry x="1003" y="1370" width="33" height="670" as="geometry" />
        </mxCell>
        <mxCell id="6dfiyO4DCfQlSEujeqz_-67" value="dev-sitl Branch (software-stack)" style="text;html=1;align=center;verticalAlign=middle;whiteSpace=wrap;rounded=0;" parent="1" vertex="1">
          <mxGeometry x="1530" y="1340" width="172" height="30" as="geometry" />
        </mxCell>
        <mxCell id="6dfiyO4DCfQlSEujeqz_-68" value="" style="shape=umlLifeline;perimeter=lifelinePerimeter;whiteSpace=wrap;html=1;container=1;dropTarget=0;collapsible=0;recursiveResize=0;outlineConnect=0;portConstraint=eastwest;newEdgeStyle={&quot;curved&quot;:0,&quot;rounded&quot;:0};participant=umlActor;size=10;" parent="1" vertex="1">
          <mxGeometry x="1598.5" y="1370" width="28.67" height="660" as="geometry" />
        </mxCell>
        <mxCell id="6dfiyO4DCfQlSEujeqz_-70" value="developer 1 Branch" style="text;html=1;align=center;verticalAlign=middle;whiteSpace=wrap;rounded=0;" parent="1" vertex="1">
          <mxGeometry x="2190" y="1340" width="140" height="30" as="geometry" />
        </mxCell>
        <mxCell id="6dfiyO4DCfQlSEujeqz_-71" value="developer 2 Branch" style="text;html=1;align=center;verticalAlign=middle;whiteSpace=wrap;rounded=0;" parent="1" vertex="1">
          <mxGeometry x="2441" y="1340" width="140" height="30" as="geometry" />
        </mxCell>
        <mxCell id="6dfiyO4DCfQlSEujeqz_-72" value="&lt;h1 style=&quot;margin-top: 0px;&quot;&gt;Developers Branch Guide&lt;/h1&gt;&lt;p&gt;Do not merge with others outside `main`, `dev`, `dev-sitl`&lt;/p&gt;&lt;p&gt;Use prefix `feature/` and `bugfix/`&lt;/p&gt;&lt;p&gt;&lt;br&gt;&lt;/p&gt;" style="text;html=1;whiteSpace=wrap;overflow=hidden;rounded=0;" parent="1" vertex="1">
          <mxGeometry x="2030" y="1160" width="360" height="140" as="geometry" />
        </mxCell>
        <mxCell id="6dfiyO4DCfQlSEujeqz_-73" value="" style="shape=umlLifeline;perimeter=lifelinePerimeter;whiteSpace=wrap;html=1;container=1;dropTarget=0;collapsible=0;recursiveResize=0;outlineConnect=0;portConstraint=eastwest;newEdgeStyle={&quot;curved&quot;:0,&quot;rounded&quot;:0};participant=umlActor;size=10;" parent="1" vertex="1">
          <mxGeometry x="2250" y="1370" width="43.34" height="650" as="geometry" />
        </mxCell>
        <mxCell id="6dfiyO4DCfQlSEujeqz_-74" value="" style="shape=umlLifeline;perimeter=lifelinePerimeter;whiteSpace=wrap;html=1;container=1;dropTarget=0;collapsible=0;recursiveResize=0;outlineConnect=0;portConstraint=eastwest;newEdgeStyle={&quot;curved&quot;:0,&quot;rounded&quot;:0};participant=umlActor;size=10;" parent="1" vertex="1">
          <mxGeometry x="2501" y="1370" width="28.67" height="430" as="geometry" />
        </mxCell>
        <mxCell id="6dfiyO4DCfQlSEujeqz_-75" value="Not Allowed" style="html=1;verticalAlign=bottom;startArrow=oval;startFill=1;endArrow=block;startSize=8;curved=0;rounded=0;" parent="1" target="6dfiyO4DCfQlSEujeqz_-73" edge="1">
          <mxGeometry x="-0.0027" width="60" relative="1" as="geometry">
            <mxPoint x="2510.5" y="1437" as="sourcePoint" />
            <mxPoint x="2270" y="1437" as="targetPoint" />
            <mxPoint as="offset" />
          </mxGeometry>
        </mxCell>
        <mxCell id="6dfiyO4DCfQlSEujeqz_-76" value="" style="shape=mxgraph.mockup.markup.redX;fillColor=#ff0000;html=1;shadow=0;whiteSpace=wrap;strokeColor=none;" parent="1" vertex="1">
          <mxGeometry x="2369" y="1390" width="30" height="30" as="geometry" />
        </mxCell>
        <mxCell id="6dfiyO4DCfQlSEujeqz_-78" value="Merge Intention" style="html=1;verticalAlign=bottom;startArrow=oval;startFill=1;endArrow=block;startSize=8;curved=0;rounded=0;entryX=1;entryY=0.5;entryDx=0;entryDy=0;" parent="1" source="6dfiyO4DCfQlSEujeqz_-73" target="6dfiyO4DCfQlSEujeqz_-79" edge="1">
          <mxGeometry x="0.0052" width="60" relative="1" as="geometry">
            <mxPoint x="2260.33" y="1490" as="sourcePoint" />
            <mxPoint x="2150" y="1490" as="targetPoint" />
            <mxPoint as="offset" />
          </mxGeometry>
        </mxCell>
        <mxCell id="6dfiyO4DCfQlSEujeqz_-90" style="edgeStyle=orthogonalEdgeStyle;rounded=0;orthogonalLoop=1;jettySize=auto;html=1;exitX=0;exitY=0.5;exitDx=0;exitDy=0;" parent="1" source="6dfiyO4DCfQlSEujeqz_-79" edge="1">
          <mxGeometry relative="1" as="geometry">
            <mxPoint x="2010" y="1490.272727272727" as="targetPoint" />
          </mxGeometry>
        </mxCell>
        <mxCell id="6dfiyO4DCfQlSEujeqz_-79" value="Were new packages needed?" style="rhombus;whiteSpace=wrap;html=1;spacingLeft=12;spacingRight=12;" parent="1" vertex="1">
          <mxGeometry x="2060" y="1450" width="110" height="80" as="geometry" />
        </mxCell>
        <mxCell id="6dfiyO4DCfQlSEujeqz_-80" value="" style="endArrow=classic;html=1;rounded=0;exitX=0.5;exitY=1;exitDx=0;exitDy=0;entryX=0.5;entryY=0;entryDx=0;entryDy=0;" parent="1" source="6dfiyO4DCfQlSEujeqz_-79" target="6dfiyO4DCfQlSEujeqz_-82" edge="1">
          <mxGeometry width="50" height="50" relative="1" as="geometry">
            <mxPoint x="1980" y="1610" as="sourcePoint" />
            <mxPoint x="2095" y="1570" as="targetPoint" />
          </mxGeometry>
        </mxCell>
        <mxCell id="6dfiyO4DCfQlSEujeqz_-81" value="Yes" style="text;html=1;align=left;verticalAlign=middle;whiteSpace=wrap;rounded=0;" parent="1" vertex="1">
          <mxGeometry x="2115" y="1530" width="60" height="30" as="geometry" />
        </mxCell>
        <mxCell id="6dfiyO4DCfQlSEujeqz_-89" style="edgeStyle=orthogonalEdgeStyle;rounded=0;orthogonalLoop=1;jettySize=auto;html=1;exitX=0.5;exitY=1;exitDx=0;exitDy=0;entryX=1;entryY=0.5;entryDx=0;entryDy=0;" parent="1" source="6dfiyO4DCfQlSEujeqz_-82" target="6dfiyO4DCfQlSEujeqz_-85" edge="1">
          <mxGeometry relative="1" as="geometry" />
        </mxCell>
        <mxCell id="6dfiyO4DCfQlSEujeqz_-82" value="Update hear-cli for SITL&lt;div&gt;and &lt;b&gt;notify&lt;/b&gt; on #core channel&lt;/div&gt;" style="rounded=0;whiteSpace=wrap;html=1;" parent="1" vertex="1">
          <mxGeometry x="2070" y="1570" width="90" height="80" as="geometry" />
        </mxCell>
        <mxCell id="od1tJyb02S_DrZiKHdWB-57" style="edgeStyle=orthogonalEdgeStyle;rounded=0;orthogonalLoop=1;jettySize=auto;html=1;entryX=0.5;entryY=0;entryDx=0;entryDy=0;" parent="1" target="od1tJyb02S_DrZiKHdWB-56" edge="1">
          <mxGeometry relative="1" as="geometry">
            <mxPoint x="1640" y="1490" as="sourcePoint" />
          </mxGeometry>
        </mxCell>
        <mxCell id="6dfiyO4DCfQlSEujeqz_-83" value="Core team Code Review Process&lt;div&gt;&lt;br&gt;&lt;/div&gt;&lt;div&gt;Directives:&lt;/div&gt;&lt;div&gt;1- Merge dev-sitl into your branch.&lt;/div&gt;&lt;div&gt;2- Fly successfully with SITL.&lt;br&gt;3. Create a PR for HEAR_FC with instructions of branches to be tested from other repos&amp;nbsp;&lt;/div&gt;&lt;div&gt;&lt;br&gt;&lt;/div&gt;&lt;div&gt;Requirements:&lt;/div&gt;&lt;div&gt;1- Successful SITL test on peer machine&lt;/div&gt;" style="rounded=0;whiteSpace=wrap;html=1;align=left;verticalAlign=top;" parent="1" vertex="1">
          <mxGeometry x="1750" y="1340" width="100" height="300" as="geometry" />
        </mxCell>
        <mxCell id="6dfiyO4DCfQlSEujeqz_-84" value="Update the software-stack&amp;nbsp;&lt;div&gt;submodule pointers&lt;/div&gt;" style="html=1;verticalAlign=bottom;startArrow=oval;startFill=1;endArrow=block;startSize=8;curved=0;rounded=0;exitX=0;exitY=0.5;exitDx=0;exitDy=0;" parent="1" source="6dfiyO4DCfQlSEujeqz_-83" edge="1">
          <mxGeometry x="0.0052" width="60" relative="1" as="geometry">
            <mxPoint x="1720.33" y="1489.55" as="sourcePoint" />
            <mxPoint x="1610" y="1490" as="targetPoint" />
            <mxPoint as="offset" />
          </mxGeometry>
        </mxCell>
        <mxCell id="6dfiyO4DCfQlSEujeqz_-91" style="edgeStyle=orthogonalEdgeStyle;rounded=0;orthogonalLoop=1;jettySize=auto;html=1;exitX=0;exitY=0.5;exitDx=0;exitDy=0;entryX=1;entryY=0.5;entryDx=0;entryDy=0;" parent="1" source="6dfiyO4DCfQlSEujeqz_-85" target="6dfiyO4DCfQlSEujeqz_-83" edge="1">
          <mxGeometry relative="1" as="geometry" />
        </mxCell>
        <mxCell id="6dfiyO4DCfQlSEujeqz_-85" value="Was documentation updated?" style="rhombus;whiteSpace=wrap;html=1;spacingLeft=12;spacingRight=12;" parent="1" vertex="1">
          <mxGeometry x="1900" y="1450" width="110" height="80" as="geometry" />
        </mxCell>
        <mxCell id="6dfiyO4DCfQlSEujeqz_-86" value="" style="endArrow=classic;html=1;rounded=0;exitX=0.5;exitY=1;exitDx=0;exitDy=0;" parent="1" source="6dfiyO4DCfQlSEujeqz_-85" edge="1">
          <mxGeometry width="50" height="50" relative="1" as="geometry">
            <mxPoint x="1840" y="1610" as="sourcePoint" />
            <mxPoint x="1955" y="1570" as="targetPoint" />
          </mxGeometry>
        </mxCell>
        <mxCell id="6dfiyO4DCfQlSEujeqz_-87" value="Yes" style="text;html=1;align=left;verticalAlign=middle;whiteSpace=wrap;rounded=0;" parent="1" vertex="1">
          <mxGeometry x="1955" y="1530" width="60" height="30" as="geometry" />
        </mxCell>
        <mxCell id="6dfiyO4DCfQlSEujeqz_-92" style="edgeStyle=orthogonalEdgeStyle;rounded=0;orthogonalLoop=1;jettySize=auto;html=1;exitX=0.5;exitY=1;exitDx=0;exitDy=0;entryX=1;entryY=0.5;entryDx=0;entryDy=0;" parent="1" source="6dfiyO4DCfQlSEujeqz_-88" target="6dfiyO4DCfQlSEujeqz_-83" edge="1">
          <mxGeometry relative="1" as="geometry" />
        </mxCell>
        <mxCell id="6dfiyO4DCfQlSEujeqz_-88" value="Update HEAR_Wiki and &lt;b&gt;notify&lt;/b&gt; on #documentation-updates" style="rounded=0;whiteSpace=wrap;html=1;" parent="1" vertex="1">
          <mxGeometry x="1900" y="1570" width="110" height="80" as="geometry" />
        </mxCell>
        <mxCell id="6dfiyO4DCfQlSEujeqz_-93" value="Merge Intention" style="html=1;verticalAlign=bottom;startArrow=oval;startFill=1;endArrow=block;startSize=8;curved=0;rounded=0;entryX=1;entryY=0.5;entryDx=0;entryDy=0;" parent="1" edge="1">
          <mxGeometry x="0.0052" width="60" relative="1" as="geometry">
            <mxPoint x="1608" y="1519.55" as="sourcePoint" />
            <mxPoint x="1517.67" y="1519.55" as="targetPoint" />
            <mxPoint as="offset" />
          </mxGeometry>
        </mxCell>
        <mxCell id="6dfiyO4DCfQlSEujeqz_-96" style="edgeStyle=orthogonalEdgeStyle;rounded=0;orthogonalLoop=1;jettySize=auto;html=1;exitX=0.5;exitY=1;exitDx=0;exitDy=0;entryX=0.5;entryY=0;entryDx=0;entryDy=0;" parent="1" source="6dfiyO4DCfQlSEujeqz_-94" target="6dfiyO4DCfQlSEujeqz_-95" edge="1">
          <mxGeometry relative="1" as="geometry" />
        </mxCell>
        <mxCell id="6dfiyO4DCfQlSEujeqz_-101" style="edgeStyle=orthogonalEdgeStyle;rounded=0;orthogonalLoop=1;jettySize=auto;html=1;exitX=0;exitY=0.5;exitDx=0;exitDy=0;entryX=1;entryY=0.5;entryDx=0;entryDy=0;" parent="1" source="6dfiyO4DCfQlSEujeqz_-94" target="6dfiyO4DCfQlSEujeqz_-104" edge="1">
          <mxGeometry relative="1" as="geometry">
            <mxPoint x="1330" y="1520" as="targetPoint" />
          </mxGeometry>
        </mxCell>
        <mxCell id="6dfiyO4DCfQlSEujeqz_-94" value="Were new packages needed on FC?" style="rhombus;whiteSpace=wrap;html=1;spacingLeft=12;spacingRight=12;" parent="1" vertex="1">
          <mxGeometry x="1390" y="1470" width="130" height="100" as="geometry" />
        </mxCell>
        <mxCell id="6dfiyO4DCfQlSEujeqz_-100" style="edgeStyle=orthogonalEdgeStyle;rounded=0;orthogonalLoop=1;jettySize=auto;html=1;exitX=0;exitY=0.5;exitDx=0;exitDy=0;entryX=1;entryY=0.5;entryDx=0;entryDy=0;" parent="1" source="6dfiyO4DCfQlSEujeqz_-95" target="6dfiyO4DCfQlSEujeqz_-104" edge="1">
          <mxGeometry relative="1" as="geometry">
            <mxPoint x="1330" y="1520" as="targetPoint" />
          </mxGeometry>
        </mxCell>
        <mxCell id="6dfiyO4DCfQlSEujeqz_-95" value="Update hear-cli for targets&lt;div&gt;Update current image patches (Refer to &quot;Ready-to-Integrate&quot; process)&lt;/div&gt;" style="rounded=0;whiteSpace=wrap;html=1;" parent="1" vertex="1">
          <mxGeometry x="1390" y="1590" width="130" height="100" as="geometry" />
        </mxCell>
        <mxCell id="6dfiyO4DCfQlSEujeqz_-102" value="Yes" style="text;html=1;align=left;verticalAlign=middle;whiteSpace=wrap;rounded=0;" parent="1" vertex="1">
          <mxGeometry x="1460" y="1560" width="60" height="30" as="geometry" />
        </mxCell>
        <mxCell id="od1tJyb02S_DrZiKHdWB-59" style="edgeStyle=orthogonalEdgeStyle;rounded=0;orthogonalLoop=1;jettySize=auto;html=1;exitX=0;exitY=0.25;exitDx=0;exitDy=0;entryX=0.5;entryY=1;entryDx=0;entryDy=0;" parent="1" source="6dfiyO4DCfQlSEujeqz_-104" target="od1tJyb02S_DrZiKHdWB-58" edge="1">
          <mxGeometry relative="1" as="geometry" />
        </mxCell>
        <mxCell id="6dfiyO4DCfQlSEujeqz_-104" value="Code Review Process:&lt;div&gt;&lt;br&gt;Assumptions:&lt;/div&gt;&lt;div&gt;1. Requirements for dev-sitl satisfied.&lt;/div&gt;&lt;div&gt;2. No developments occured post dev-sitl test&lt;br&gt;&lt;br&gt;Directives:&lt;/div&gt;&lt;div&gt;1. Request image ver and patch number in PR&lt;br&gt;&lt;br&gt;&lt;/div&gt;&lt;div&gt;Requirements:&lt;/div&gt;&lt;div&gt;1- Successful arm and takeoff test on developer test machine.&lt;/div&gt;" style="rounded=0;whiteSpace=wrap;html=1;align=left;verticalAlign=top;" parent="1" vertex="1">
          <mxGeometry x="1160" y="1445" width="170" height="245" as="geometry" />
        </mxCell>
        <mxCell id="6dfiyO4DCfQlSEujeqz_-106" value="&lt;h1 style=&quot;margin-top: 0px;&quot;&gt;&lt;span style=&quot;background-color: initial;&quot;&gt;dev-sitl branch (testing)&lt;/span&gt;&lt;/h1&gt;&lt;p&gt;&lt;span style=&quot;background-color: initial;&quot;&gt;&lt;b&gt;Goal:&lt;/b&gt;&lt;/span&gt;&lt;/p&gt;&lt;p style=&quot;margin-top: 0px;&quot;&gt;&lt;span style=&quot;font-size: 12px; font-weight: 400;&quot;&gt;Exchange code and progress within the core team.&lt;/span&gt;&lt;/p&gt;&lt;p&gt;&lt;span style=&quot;background-color: initial;&quot;&gt;&lt;b&gt;Guarantees:&lt;/b&gt;&lt;/span&gt;&lt;/p&gt;&lt;div&gt;&lt;span style=&quot;background-color: initial;&quot;&gt;Download the artifacts and follow the guides to be able to fly in SITL&lt;/span&gt;&lt;br&gt;&lt;/div&gt;" style="text;html=1;whiteSpace=wrap;overflow=hidden;rounded=0;" parent="1" vertex="1">
          <mxGeometry x="1412.83" y="1150" width="400" height="180" as="geometry" />
        </mxCell>
        <mxCell id="6dfiyO4DCfQlSEujeqz_-107" value="&lt;h1 style=&quot;margin-top: 0px;&quot;&gt;&lt;span style=&quot;background-color: initial;&quot;&gt;dev branch (staging)&lt;/span&gt;&lt;/h1&gt;&lt;div&gt;&lt;h1 style=&quot;margin-top: 0px;&quot;&gt;&lt;br&gt;&lt;/h1&gt;&lt;/div&gt;" style="text;html=1;whiteSpace=wrap;overflow=hidden;rounded=0;" parent="1" vertex="1">
          <mxGeometry x="850" y="1150" width="530" height="40" as="geometry" />
        </mxCell>
        <mxCell id="6dfiyO4DCfQlSEujeqz_-108" value="&lt;h1 style=&quot;margin-top: 0px;&quot;&gt;&lt;span style=&quot;background-color: initial;&quot;&gt;main branch (production)&lt;/span&gt;&lt;/h1&gt;&lt;h1 style=&quot;margin-top: 0px;&quot;&gt;&lt;p style=&quot;font-size: 12px; font-weight: 400;&quot;&gt;&lt;span style=&quot;background-color: initial;&quot;&gt;&lt;b&gt;Goal:&lt;/b&gt;&lt;/span&gt;&lt;/p&gt;&lt;p style=&quot;font-size: 12px; font-weight: 400;&quot;&gt;&lt;span style=&quot;background-color: initial;&quot;&gt;Ready for drone operation (Production)&lt;/span&gt;&lt;/p&gt;&lt;p style=&quot;font-size: 12px; font-weight: 400;&quot;&gt;&lt;span style=&quot;background-color: initial;&quot;&gt;&lt;b&gt;Guarantees:&lt;/b&gt;&lt;/span&gt;&lt;/p&gt;&lt;p style=&quot;font-size: 12px; font-weight: 400;&quot;&gt;&lt;span style=&quot;background-color: initial;&quot;&gt;1) Download the artifacts and follow the guides to be able to fly on all supported targets. (Exceptions must be in release notes)&lt;/span&gt;&lt;/p&gt;&lt;/h1&gt;" style="text;html=1;whiteSpace=wrap;overflow=hidden;rounded=0;" parent="1" vertex="1">
          <mxGeometry x="228" y="1150" width="530" height="190" as="geometry" />
        </mxCell>
        <mxCell id="6dfiyO4DCfQlSEujeqz_-109" value="Special drones projects, e.g. Tricopter" style="rounded=0;whiteSpace=wrap;html=1;" parent="1" vertex="1">
          <mxGeometry x="640" y="1720" width="150" height="70" as="geometry" />
        </mxCell>
        <mxCell id="6dfiyO4DCfQlSEujeqz_-110" value="Release with vx.y.z-[project-tag]" style="html=1;verticalAlign=bottom;endArrow=open;dashed=1;endSize=8;curved=0;rounded=0;exitX=0;exitY=0.5;exitDx=0;exitDy=0;" parent="1" source="6dfiyO4DCfQlSEujeqz_-109" edge="1">
          <mxGeometry relative="1" as="geometry">
            <mxPoint x="650" y="1755" as="sourcePoint" />
            <mxPoint x="420" y="1754.41" as="targetPoint" />
          </mxGeometry>
        </mxCell>
        <mxCell id="6dfiyO4DCfQlSEujeqz_-111" value="&lt;div style=&quot;text-align: left;&quot;&gt;&lt;p style=&quot;text-align: left;&quot;&gt;&lt;span style=&quot;font-size: 12px; background-color: initial;&quot;&gt;&lt;b&gt;Goal:&lt;/b&gt;&lt;/span&gt;&lt;/p&gt;&lt;p style=&quot;text-align: left;&quot;&gt;&lt;span style=&quot;font-size: 12px; background-color: initial;&quot;&gt;Ready for Service Team testing&lt;/span&gt;&lt;/p&gt;&lt;p style=&quot;text-align: left;&quot;&gt;&lt;span style=&quot;font-size: 12px; background-color: initial;&quot;&gt;&lt;b&gt;Guarantees:&lt;/b&gt;&lt;/span&gt;&lt;/p&gt;&lt;p style=&quot;text-align: left;&quot;&gt;&lt;span style=&quot;font-size: 12px; font-weight: 400; background-color: initial;&quot;&gt;1) Download the artifacts and follow the guides to be able to no-prop-fly on all supported targets.&lt;/span&gt;&lt;/p&gt;&lt;p style=&quot;text-align: left;&quot;&gt;2) Follow &quot;Ready-to-Integrate&quot; process to prepare images.&lt;/p&gt;&lt;/div&gt;" style="text;html=1;align=center;verticalAlign=middle;whiteSpace=wrap;rounded=0;" parent="1" vertex="1">
          <mxGeometry x="849.5" y="1190" width="510" height="140" as="geometry" />
        </mxCell>
        <mxCell id="6dfiyO4DCfQlSEujeqz_-120" value="Release software-stack&lt;br&gt;with vx.y.z-rc" style="html=1;verticalAlign=bottom;endArrow=block;curved=0;rounded=0;" parent="1" target="6dfiyO4DCfQlSEujeqz_-65" edge="1">
          <mxGeometry relative="1" as="geometry">
            <mxPoint x="1160" y="1555" as="sourcePoint" />
            <mxPoint x="1029.4900000000002" y="1555.0000000000014" as="targetPoint" />
          </mxGeometry>
        </mxCell>
        <mxCell id="6dfiyO4DCfQlSEujeqz_-138" value="Release to Production Intention&lt;div&gt;Post Service Team Testing Tickets addressed&lt;/div&gt;" style="html=1;verticalAlign=bottom;startArrow=oval;startFill=1;endArrow=block;startSize=8;curved=0;rounded=0;entryX=1;entryY=0.5;entryDx=0;entryDy=0;" parent="1" target="6dfiyO4DCfQlSEujeqz_-141" edge="1">
          <mxGeometry x="0.0052" width="60" relative="1" as="geometry">
            <mxPoint x="1019.11" y="1512.5" as="sourcePoint" />
            <mxPoint x="870.11" y="1525" as="targetPoint" />
            <mxPoint as="offset" />
          </mxGeometry>
        </mxCell>
        <mxCell id="6dfiyO4DCfQlSEujeqz_-139" value="Not Allowed" style="html=1;verticalAlign=bottom;startArrow=oval;startFill=1;endArrow=block;startSize=8;curved=0;rounded=0;" parent="1" edge="1">
          <mxGeometry x="-0.0027" width="60" relative="1" as="geometry">
            <mxPoint x="2272.32" y="1789" as="sourcePoint" />
            <mxPoint x="1020.0018181818185" y="1789" as="targetPoint" />
            <mxPoint as="offset" />
          </mxGeometry>
        </mxCell>
        <mxCell id="6dfiyO4DCfQlSEujeqz_-140" value="" style="shape=mxgraph.mockup.markup.redX;fillColor=#ff0000;html=1;shadow=0;whiteSpace=wrap;strokeColor=none;" parent="1" vertex="1">
          <mxGeometry x="1630" y="1740" width="30" height="30" as="geometry" />
        </mxCell>
        <mxCell id="6dfiyO4DCfQlSEujeqz_-141" value="Code Review Process:&lt;div&gt;&lt;br&gt;Assumptions:&lt;/div&gt;&lt;div&gt;1. Requirements for `dev` satisfied.&lt;/div&gt;&lt;div&gt;2. No developments on `dev` occured post intention&lt;br&gt;&lt;br&gt;&lt;/div&gt;&lt;div&gt;Requirements:&lt;/div&gt;&lt;div&gt;(Ongoing bases - defined per test mission in the story card)&lt;/div&gt;&lt;div&gt;* Current e.g.: RTK flight + OptiTrack flight&lt;/div&gt;" style="rounded=0;whiteSpace=wrap;html=1;align=left;verticalAlign=top;" parent="1" vertex="1">
          <mxGeometry x="580" y="1420" width="208" height="185" as="geometry" />
        </mxCell>
        <mxCell id="od1tJyb02S_DrZiKHdWB-55" value="&lt;h1 style=&quot;margin-top: 0px;&quot;&gt;Examples from existing use cases&lt;/h1&gt;&lt;p&gt;&lt;b&gt;Case I:&amp;nbsp;&lt;/b&gt;&lt;/p&gt;&lt;p&gt;Problem: While testing with a stable release (main) the RC was not moving the drone in negative direction.&amp;nbsp;&lt;/p&gt;&lt;p&gt;Solution: apply a hotfix to the dev branch and release the update. Obvious bugs like this should have not passed the &#39;dev&#39; stage in the first place. releases on main must be minimized.&lt;/p&gt;&lt;p&gt;&lt;br&gt;&lt;/p&gt;&lt;p&gt;&lt;b&gt;Case II:&lt;/b&gt;&lt;/p&gt;&lt;p&gt;Problem: developer 1 needs recent updates from developer 2&lt;/p&gt;&lt;p&gt;Solution: developer 1 and 2 must first merge to `&lt;span style=&quot;text-align: center; background-color: initial;&quot;&gt;dev-sitl` branch following all relevant procedures&lt;br&gt;&lt;br&gt;&lt;b&gt;Case III:&lt;/b&gt;&lt;/span&gt;&lt;/p&gt;&lt;p&gt;Problem: developer 1 needs to add two small incoherent features&lt;/p&gt;&lt;p&gt;Solution: Take a branch from &quot;dev-sitl&quot; for &quot;feature 1&quot;. Once done, merge &quot;dev-sitl&quot; into &quot;feature 1&quot; branch and create a PR. Take a branch from &quot;feature 1&quot; for &quot;feature 2&quot; (no need to wait until PR is approved). etc.&lt;/p&gt;&lt;p&gt;&lt;span style=&quot;text-align: center; background-color: initial;&quot;&gt;&lt;b&gt;Case IV:&lt;/b&gt;&lt;/span&gt;&lt;/p&gt;&lt;p&gt;Problem: developer 1 needs to add two coherent features (same Epic)&lt;/p&gt;&lt;p&gt;Solution: Take a branch from &quot;dev-sitl&quot; for &quot;epic/xyz&quot;. Branch &quot;feature1&quot;,&amp;nbsp;&lt;span style=&quot;background-color: transparent; color: light-dark(rgb(0, 0, 0), rgb(255, 255, 255));&quot;&gt;&quot;feature2&quot;, etc. from&lt;/span&gt;&lt;span style=&quot;background-color: transparent; color: light-dark(rgb(0, 0, 0), rgb(255, 255, 255));&quot;&gt;&amp;nbsp;&lt;/span&gt;&lt;span style=&quot;background-color: transparent; color: light-dark(rgb(0, 0, 0), rgb(255, 255, 255));&quot;&gt;&quot;epic/xyz&quot;&lt;/span&gt;&lt;span style=&quot;background-color: transparent; color: light-dark(rgb(0, 0, 0), rgb(255, 255, 255));&quot;&gt;. Once done create a PR for&amp;nbsp;&lt;/span&gt;&lt;span style=&quot;background-color: transparent; color: light-dark(rgb(0, 0, 0), rgb(255, 255, 255));&quot;&gt;&quot;epic/xyz&quot; into&amp;nbsp;&lt;/span&gt;&lt;span style=&quot;background-color: transparent; color: light-dark(rgb(0, 0, 0), rgb(255, 255, 255));&quot;&gt;&quot;dev-sitl&quot;&lt;/span&gt;&lt;span style=&quot;background-color: transparent; color: light-dark(rgb(0, 0, 0), rgb(255, 255, 255));&quot;&gt;.&lt;/span&gt;&lt;/p&gt;&lt;div&gt;&lt;br&gt;&lt;/div&gt;" style="text;html=1;whiteSpace=wrap;overflow=hidden;rounded=0;" parent="1" vertex="1">
          <mxGeometry x="2670" y="1150" width="520" height="510" as="geometry" />
        </mxCell>
        <mxCell id="od1tJyb02S_DrZiKHdWB-56" value="&lt;div&gt;&lt;b&gt;Notify:&lt;/b&gt;&lt;/div&gt;&lt;div&gt;&lt;span style=&quot;background-color: initial;&quot;&gt;1- Inform on #software-releases once software-stack dev-sitl commit concludes&lt;/span&gt;&lt;br&gt;&lt;/div&gt;" style="rounded=0;whiteSpace=wrap;html=1;align=left;verticalAlign=top;" parent="1" vertex="1">
          <mxGeometry x="1627.17" y="1585" width="112.83" height="130" as="geometry" />
        </mxCell>
        <mxCell id="od1tJyb02S_DrZiKHdWB-58" value="&lt;div&gt;&lt;b&gt;Notify:&lt;/b&gt;&lt;/div&gt;&lt;div&gt;&lt;span style=&quot;background-color: initial;&quot;&gt;1- Inform on #software-releases&lt;/span&gt;&lt;br&gt;&lt;/div&gt;" style="rounded=0;whiteSpace=wrap;html=1;align=left;verticalAlign=top;" parent="1" vertex="1">
          <mxGeometry x="1032" y="1390" width="178" height="50" as="geometry" />
        </mxCell>
        <mxCell id="od1tJyb02S_DrZiKHdWB-60" value="Release with vx.y.z" style="html=1;verticalAlign=bottom;endArrow=block;curved=0;rounded=0;" parent="1" edge="1">
          <mxGeometry relative="1" as="geometry">
            <mxPoint x="600.11" y="1512.1" as="sourcePoint" />
            <mxPoint x="420.0039393939395" y="1512.1" as="targetPoint" />
          </mxGeometry>
        </mxCell>
        <mxCell id="od1tJyb02S_DrZiKHdWB-62" value="&lt;b&gt;Note on release version verification:&lt;/b&gt; LeafMC, PX4, LeafFC, HEAR_MC. See&amp;nbsp;" style="text;html=1;align=left;verticalAlign=top;whiteSpace=wrap;rounded=0;" parent="1" vertex="1">
          <mxGeometry x="420" y="2110" width="470" height="30" as="geometry" />
        </mxCell>
        <mxCell id="BrCcBkZJxRmZ2r2HpxOw-56" value="&lt;span style=&quot;color: rgb(0, 0, 0); font-family: Helvetica; font-size: 12px; font-style: normal; font-variant-ligatures: normal; font-variant-caps: normal; letter-spacing: normal; orphans: 2; text-indent: 0px; text-transform: none; widows: 2; word-spacing: 0px; -webkit-text-stroke-width: 0px; white-space: nowrap; background-color: rgb(251, 251, 251); text-decoration-thickness: initial; text-decoration-style: initial; text-decoration-color: initial; float: none; display: inline !important;&quot;&gt;&lt;b&gt;Note:&lt;/b&gt;&lt;/span&gt;&lt;span style=&quot;color: rgb(0, 0, 0); font-family: Helvetica; font-size: 12px; font-style: normal; font-variant-ligatures: normal; font-variant-caps: normal; font-weight: 400; letter-spacing: normal; orphans: 2; text-indent: 0px; text-transform: none; widows: 2; word-spacing: 0px; -webkit-text-stroke-width: 0px; white-space: nowrap; background-color: rgb(251, 251, 251); text-decoration-thickness: initial; text-decoration-style: initial; text-decoration-color: initial; float: none; display: inline !important;&quot;&gt; non droneleaf repos would have their main branches called&lt;span&gt;&amp;nbsp;&lt;/span&gt;&lt;/span&gt;&lt;i style=&quot;forced-color-adjust: none; color: rgb(0, 0, 0); font-family: Helvetica; font-size: 12px; font-variant-ligatures: normal; font-variant-caps: normal; font-weight: 400; letter-spacing: normal; orphans: 2; text-indent: 0px; text-transform: none; widows: 2; word-spacing: 0px; -webkit-text-stroke-width: 0px; white-space: nowrap; background-color: rgb(251, 251, 251); text-decoration-thickness: initial; text-decoration-style: initial; text-decoration-color: initial;&quot;&gt;&lt;b style=&quot;forced-color-adjust: none;&quot;&gt;leaf-main&amp;nbsp;&lt;/b&gt;&lt;/i&gt;&lt;div&gt;&lt;span style=&quot;color: rgb(0, 0, 0); font-family: Helvetica; font-size: 12px; font-style: normal; font-variant-ligatures: normal; font-variant-caps: normal; font-weight: 400; letter-spacing: normal; orphans: 2; text-indent: 0px; text-transform: none; widows: 2; word-spacing: 0px; -webkit-text-stroke-width: 0px; white-space: nowrap; background-color: rgb(251, 251, 251); text-decoration-thickness: initial; text-decoration-style: initial; text-decoration-color: initial; float: none; display: inline !important;&quot;&gt;example: QGC and PX4-Autopilot&lt;/span&gt;&lt;/div&gt;" style="rounded=0;html=1;align=left;verticalAlign=top;fillColor=none;whiteSpace=wrap;dashed=1;dashPattern=1 1;" parent="1" vertex="1">
          <mxGeometry x="-10" y="1365" width="410" height="80" as="geometry" />
        </mxCell>
        <mxCell id="6aibF-Lcl_5mkikrL6yu-54" value="P0 Bug" style="html=1;verticalAlign=bottom;startArrow=oval;startFill=1;endArrow=block;startSize=8;curved=0;rounded=0;" edge="1" parent="1">
          <mxGeometry width="60" relative="1" as="geometry">
            <mxPoint x="1020" y="1869.62" as="sourcePoint" />
            <mxPoint x="1100" y="1870" as="targetPoint" />
          </mxGeometry>
        </mxCell>
        <mxCell id="6aibF-Lcl_5mkikrL6yu-55" style="edgeStyle=orthogonalEdgeStyle;rounded=0;orthogonalLoop=1;jettySize=auto;html=1;exitX=1;exitY=0.5;exitDx=0;exitDy=0;entryX=0.5;entryY=0;entryDx=0;entryDy=0;" edge="1" parent="1" source="6aibF-Lcl_5mkikrL6yu-56" target="6aibF-Lcl_5mkikrL6yu-58">
          <mxGeometry relative="1" as="geometry" />
        </mxCell>
        <mxCell id="6aibF-Lcl_5mkikrL6yu-56" value="Use Bug Report Template in Trello (Create Card)" style="rounded=0;whiteSpace=wrap;html=1;" vertex="1" parent="1">
          <mxGeometry x="1100" y="1850" width="150" height="40" as="geometry" />
        </mxCell>
        <mxCell id="6aibF-Lcl_5mkikrL6yu-57" style="edgeStyle=orthogonalEdgeStyle;rounded=0;orthogonalLoop=1;jettySize=auto;html=1;exitX=1;exitY=0.5;exitDx=0;exitDy=0;" edge="1" parent="1" source="6aibF-Lcl_5mkikrL6yu-58">
          <mxGeometry relative="1" as="geometry">
            <mxPoint x="1615" y="1959" as="targetPoint" />
          </mxGeometry>
        </mxCell>
        <mxCell id="6aibF-Lcl_5mkikrL6yu-58" value="Core Team Fix and push directly to dev" style="rounded=0;whiteSpace=wrap;html=1;" vertex="1" parent="1">
          <mxGeometry x="1267" y="1925" width="150" height="70" as="geometry" />
        </mxCell>
        <mxCell id="6aibF-Lcl_5mkikrL6yu-59" value="Release with vx.y.z-hotfix" style="html=1;verticalAlign=bottom;endArrow=open;dashed=1;endSize=8;curved=0;rounded=0;exitX=0;exitY=0.5;exitDx=0;exitDy=0;" edge="1" parent="1" source="6aibF-Lcl_5mkikrL6yu-58">
          <mxGeometry relative="1" as="geometry">
            <mxPoint x="1250" y="1960" as="sourcePoint" />
            <mxPoint x="1020" y="1960" as="targetPoint" />
          </mxGeometry>
        </mxCell>
        <mxCell id="6aibF-Lcl_5mkikrL6yu-60" value="Merge main back to dev and dev-sitl" style="text;html=1;align=center;verticalAlign=middle;whiteSpace=wrap;rounded=0;" vertex="1" parent="1">
          <mxGeometry x="1425" y="1930" width="110" height="30" as="geometry" />
        </mxCell>
      </root>
    </mxGraphModel>
  </diagram>
</mxfile>
